<svg fill="none" height="26" viewBox="0 0 25 26" width="25" xmlns="http://www.w3.org/2000/svg">
    <path
        d="M5.16667 15.0417H10.6962L10.0148 15.7232L10.0147 15.7231L10.0103 15.7276C9.63146 16.1113 9.41974 16.6293 9.42143 17.1685C9.42311 17.7077 9.63806 18.2244 10.0193 18.6057C10.4006 18.987 10.9173 19.2019 11.4565 19.2036C11.9957 19.2054 12.5137 18.9937 12.8974 18.6148L12.8974 18.6148L12.9019 18.6103L17.0684 14.4439C17.0684 14.4438 17.0685 14.4437 17.0686 14.4437C17.2581 14.2541 17.4085 14.0291 17.5112 13.7815C17.6138 13.5338 17.6666 13.2682 17.6666 13.0001C17.6666 12.7319 17.6138 12.4664 17.5112 12.2187C17.4085 11.9709 17.258 11.7458 17.0684 11.5563L12.9019 7.38981L12.9019 7.38978L12.8955 7.38343C12.5114 7.0063 11.994 6.79608 11.4558 6.79851C10.9175 6.80095 10.402 7.01585 10.0214 7.39645C9.64081 7.77705 9.42591 8.29256 9.42347 8.8308C9.42104 9.36904 9.63126 9.88647 10.0084 10.2705L10.0084 10.2705L10.0148 10.2769L10.6962 10.9584H5.16667V5.70897C5.16741 5.14546 5.3916 4.60524 5.79006 4.20677C6.18854 3.8083 6.72876 3.58412 7.29227 3.58337H17.7077C18.2712 3.58412 18.8115 3.8083 19.2099 4.20677C19.6083 4.60518 19.8325 5.1453 19.8333 5.70871C19.8333 5.70896 19.8333 5.70921 19.8333 5.70947V20.2906C19.8333 20.2909 19.8333 20.2911 19.8333 20.2914C19.8325 20.8548 19.6083 21.3949 19.2099 21.7933C18.8114 22.1919 18.2709 22.4161 17.7072 22.4167H7.29276C6.72907 22.4161 6.18865 22.1919 5.79007 21.7933C5.39159 21.3948 5.16741 20.8546 5.16667 20.2911V15.0417Z"
        stroke="#FF0000" stroke-width="2" />
</svg>
