<svg fill="none" height="35" viewBox="0 0 35 35" width="35" xmlns="http://www.w3.org/2000/svg">
    <path
        d="M27.7083 9.47916H25.8416L25.375 8.02083C25.0724 7.16512 24.5113 6.42468 23.7692 5.9021C23.0271 5.37952 22.1409 5.10066 21.2333 5.10416H13.7666C12.8501 5.10587 11.9573 5.39536 11.2142 5.93177C10.4711 6.46818 9.91518 7.22441 9.62496 8.09374L9.15829 9.55208H7.29163C6.1313 9.55208 5.01851 10.013 4.19803 10.8335C3.37756 11.654 2.91663 12.7668 2.91663 13.9271V25.5937C2.91663 26.7541 3.37756 27.8669 4.19803 28.6873C5.01851 29.5078 6.1313 29.9687 7.29163 29.9687H27.7083C28.8686 29.9687 29.9814 29.5078 30.8019 28.6873C31.6224 27.8669 32.0833 26.7541 32.0833 25.5937V13.9271C32.093 13.3464 31.987 12.7697 31.7714 12.2304C31.5559 11.6912 31.2352 11.2002 30.828 10.7862C30.4207 10.3722 29.9352 10.0434 29.3995 9.81902C28.8639 9.59461 28.289 9.47908 27.7083 9.47916ZM29.1666 25.5208C29.1666 25.9076 29.013 26.2785 28.7395 26.552C28.466 26.8255 28.0951 26.9792 27.7083 26.9792H7.29163C6.90485 26.9792 6.53392 26.8255 6.26043 26.552C5.98694 26.2785 5.83329 25.9076 5.83329 25.5208V13.8542C5.83329 13.4674 5.98694 13.0965 6.26043 12.823C6.53392 12.5495 6.90485 12.3958 7.29163 12.3958H10.2083C10.5263 12.4124 10.841 12.3245 11.1043 12.1454C11.3677 11.9663 11.5652 11.706 11.6666 11.4042L12.4541 9.01249C12.552 8.72284 12.7384 8.47125 12.987 8.2933C13.2356 8.11535 13.5338 8.02004 13.8395 8.02083H21.3062C21.6119 8.02004 21.9102 8.11535 22.1588 8.2933C22.4074 8.47125 22.5938 8.72284 22.6916 9.01249L23.4791 11.4042C23.5727 11.6823 23.748 11.9258 23.9822 12.1027C24.2164 12.2796 24.4985 12.3818 24.7916 12.3958H27.7083C28.0951 12.3958 28.466 12.5495 28.7395 12.823C29.013 13.0965 29.1666 13.4674 29.1666 13.8542V25.5208ZM17.5 12.3958C16.3462 12.3958 15.2184 12.7379 14.2591 13.3789C13.2998 14.0199 12.5522 14.9309 12.1107 15.9968C11.6691 17.0627 11.5536 18.2356 11.7787 19.3672C12.0038 20.4987 12.5594 21.5381 13.3752 22.3539C14.191 23.1698 15.2304 23.7253 16.3619 23.9504C17.4935 24.1755 18.6664 24.06 19.7323 23.6185C20.7982 23.1769 21.7092 22.4293 22.3502 21.47C22.9912 20.5107 23.3333 19.3829 23.3333 18.2292C23.3333 16.6821 22.7187 15.1983 21.6247 14.1044C20.5308 13.0104 19.0471 12.3958 17.5 12.3958ZM17.5 21.1458C16.9231 21.1458 16.3592 20.9748 15.8795 20.6543C15.3999 20.3338 15.0261 19.8783 14.8053 19.3453C14.5846 18.8124 14.5268 18.2259 14.6393 17.6601C14.7519 17.0944 15.0297 16.5747 15.4376 16.1668C15.8455 15.7589 16.3652 15.4811 16.9309 15.3685C17.4967 15.256 18.0832 15.3138 18.6161 15.5345C19.1491 15.7553 19.6046 16.1291 19.9251 16.6087C20.2456 17.0884 20.4166 17.6523 20.4166 18.2292C20.4166 19.0027 20.1093 19.7446 19.5624 20.2916C19.0154 20.8385 18.2735 21.1458 17.5 21.1458Z"
        fill="#797979" />
</svg>
