<svg fill="none" height="20" viewBox="0 0 20 20" width="20" xmlns="http://www.w3.org/2000/svg">
    <path
        d="M15.8333 2.5C15.1703 2.5 14.5344 2.76339 14.0656 3.23223C13.5967 3.70107 13.3333 4.33696 13.3333 5V7.36667L5.83334 2.89167C5.41886 2.64431 4.94518 2.51372 4.4625 2.51372C3.97983 2.51372 3.50615 2.64431 3.09167 2.89167C2.65757 3.13836 2.29685 3.496 2.04646 3.92797C1.79606 4.35994 1.66499 4.85071 1.66667 5.35V14.65C1.65835 15.1572 1.78713 15.6572 2.03941 16.0972C2.2917 16.5372 2.65813 16.901 3.1 17.15C3.50913 17.3815 3.9716 17.5021 4.44167 17.5C4.9323 17.4967 5.41301 17.3614 5.83334 17.1083L13.3333 12.6333V15C13.3333 15.663 13.5967 16.2989 14.0656 16.7678C14.5344 17.2366 15.1703 17.5 15.8333 17.5C16.4964 17.5 17.1323 17.2366 17.6011 16.7678C18.0699 16.2989 18.3333 15.663 18.3333 15V5C18.3333 4.33696 18.0699 3.70107 17.6011 3.23223C17.1323 2.76339 16.4964 2.5 15.8333 2.5ZM12.7667 11.025L5 15.675C4.83933 15.7729 4.65482 15.8247 4.46667 15.8247C4.27852 15.8247 4.09401 15.7729 3.93334 15.675C3.75071 15.5735 3.59869 15.4249 3.49314 15.2446C3.3876 15.0643 3.33241 14.8589 3.33334 14.65V5.35C3.32857 5.1391 3.38107 4.93085 3.48526 4.74743C3.58945 4.564 3.74142 4.41225 3.925 4.30833C4.08251 4.21827 4.26025 4.16953 4.44167 4.16667C4.63915 4.16455 4.83303 4.21954 5 4.325L12.775 8.975C12.9489 9.08358 13.0924 9.23464 13.1918 9.41396C13.2913 9.59328 13.3435 9.79495 13.3435 10C13.3435 10.205 13.2913 10.4067 13.1918 10.586C13.0924 10.7654 12.9489 10.9164 12.775 11.025H12.7667ZM16.6667 15C16.6667 15.221 16.5789 15.433 16.4226 15.5893C16.2663 15.7455 16.0543 15.8333 15.8333 15.8333C15.6123 15.8333 15.4004 15.7455 15.2441 15.5893C15.0878 15.433 15 15.221 15 15V5C15 4.77899 15.0878 4.56702 15.2441 4.41074C15.4004 4.25446 15.6123 4.16667 15.8333 4.16667C16.0543 4.16667 16.2663 4.25446 16.4226 4.41074C16.5789 4.56702 16.6667 4.77899 16.6667 5V15Z"
        fill="black" />
</svg>
