<svg fill="none" height="25" viewBox="0 0 25 25" width="25" xmlns="http://www.w3.org/2000/svg">
    <path
        d="M6.25 23.9584H2.08333C1.94653 23.9584 1.81106 23.9315 1.68466 23.8791C1.55827 23.8268 1.44342 23.7501 1.34669 23.6533C1.24995 23.5566 1.17322 23.4418 1.12089 23.3154C1.06855 23.189 1.04163 23.0535 1.04167 22.9167V14.5834C1.04163 14.4466 1.06855 14.3111 1.12089 14.1847C1.17322 14.0583 1.24995 13.9434 1.34669 13.8467C1.44342 13.75 1.55827 13.6732 1.68466 13.6209C1.81106 13.5686 1.94653 13.5417 2.08333 13.5417H6.25C6.3868 13.5417 6.52227 13.5686 6.64867 13.6209C6.77507 13.6732 6.88991 13.75 6.98665 13.8467C7.08338 13.9434 7.16011 14.0583 7.21245 14.1847C7.26478 14.3111 7.2917 14.4466 7.29167 14.5834V22.9167C7.2917 23.0535 7.26478 23.189 7.21245 23.3154C7.16011 23.4418 7.08338 23.5566 6.98665 23.6533C6.88991 23.7501 6.77507 23.8268 6.64867 23.8791C6.52227 23.9315 6.3868 23.9584 6.25 23.9584Z"
        fill="#9D9D9D" />
    <path
        d="M14.5833 23.9584H10.4167C10.2799 23.9584 10.1444 23.9315 10.018 23.8791C9.8916 23.8268 9.77675 23.7501 9.68002 23.6533C9.58328 23.5566 9.50656 23.4418 9.45422 23.3154C9.40188 23.189 9.37496 23.0535 9.375 22.9167V2.08335C9.37496 1.94655 9.40188 1.81108 9.45422 1.68468C9.50656 1.55829 9.58328 1.44344 9.68002 1.3467C9.77675 1.24997 9.8916 1.17324 10.018 1.12091C10.1444 1.06857 10.2799 1.04165 10.4167 1.04169H14.5833C14.7201 1.04165 14.8556 1.06857 14.982 1.12091C15.1084 1.17324 15.2232 1.24997 15.32 1.3467C15.4167 1.44344 15.4934 1.55829 15.5458 1.68468C15.5981 1.81108 15.625 1.94655 15.625 2.08335V22.9167C15.625 23.0535 15.5981 23.189 15.5458 23.3154C15.4934 23.4418 15.4167 23.5566 15.32 23.6533C15.2232 23.7501 15.1084 23.8268 14.982 23.8791C14.8556 23.9315 14.7201 23.9584 14.5833 23.9584Z"
        fill="#9D9D9D" />
    <path
        d="M22.9167 23.9583H18.75C18.6132 23.9584 18.4777 23.9314 18.3513 23.8791C18.2249 23.8268 18.1101 23.7501 18.0134 23.6533C17.9166 23.5566 17.8399 23.4417 17.7876 23.3153C17.7352 23.1889 17.7083 23.0535 17.7083 22.9167V10.4167C17.7083 10.2799 17.7352 10.1444 17.7876 10.018C17.8399 9.8916 17.9166 9.77675 18.0134 9.68002C18.1101 9.58328 18.2249 9.50656 18.3513 9.45422C18.4777 9.40188 18.6132 9.37496 18.75 9.375H22.9167C23.0535 9.37496 23.1889 9.40188 23.3153 9.45422C23.4417 9.50656 23.5566 9.58328 23.6533 9.68002C23.7501 9.77675 23.8268 9.8916 23.8791 10.018C23.9315 10.1444 23.9584 10.2799 23.9583 10.4167V22.9167C23.9584 23.0535 23.9315 23.1889 23.8791 23.3153C23.8268 23.4417 23.7501 23.5566 23.6533 23.6533C23.5566 23.7501 23.4417 23.8268 23.3153 23.8791C23.1889 23.9314 23.0535 23.9584 22.9167 23.9583Z"
        fill="#9D9D9D" />
</svg>
